<svg width="419" height="346" viewBox="0 0 419 346" fill="none" xmlns="http://www.w3.org/2000/svg">
    <path d="M310.099 315.13H173.599C172.277 315.13 171.002 314.642 170.02 313.758C169.037 312.875 168.415 311.659 168.275 310.345L142.214 66.7121C142.134 65.9651 142.212 65.2097 142.443 64.4949C142.674 63.7802 143.053 63.122 143.555 62.5633C144.058 62.0046 144.672 61.5577 145.358 61.2519C146.044 60.9461 146.787 60.788 147.538 60.7881H284.038C285.359 60.7882 286.634 61.277 287.617 62.1603C288.6 63.0436 289.221 64.2592 289.362 65.5731L315.428 309.204C315.508 309.952 315.43 310.708 315.199 311.423C314.968 312.138 314.588 312.797 314.086 313.356C313.583 313.915 312.968 314.362 312.281 314.668C311.594 314.973 310.851 315.131 310.099 315.13Z" fill="#810A8B"/>
    <path d="M301.764 299.308H187.564C186.417 299.308 185.309 298.884 184.456 298.117C183.602 297.35 183.062 296.294 182.94 295.153L158.455 75.4673C158.386 74.8186 158.454 74.1625 158.654 73.5417C158.855 72.9209 159.184 72.3493 159.62 71.864C160.056 71.3788 160.59 70.9907 161.186 70.7251C161.782 70.4595 162.427 70.3222 163.079 70.3223H277.279C278.427 70.3222 279.534 70.7465 280.387 71.5135C281.241 72.2806 281.781 73.3362 281.903 74.4773L306.388 294.163C306.458 294.812 306.39 295.468 306.189 296.089C305.988 296.71 305.659 297.281 305.223 297.767C304.787 298.252 304.254 298.64 303.658 298.906C303.062 299.171 302.417 299.308 301.764 299.308Z" fill="url(#paint0_linear_3003_5424)"/>
    <path d="M210.925 203.602C210.925 204.986 210.652 206.356 210.123 207.635C209.593 208.913 208.817 210.075 207.839 211.054C206.86 212.032 205.698 212.808 204.42 213.338C203.141 213.868 201.771 214.14 200.387 214.14C197.592 214.14 194.911 213.03 192.935 211.053C190.959 209.077 189.849 206.397 189.849 203.602C189.849 200.807 190.959 198.127 192.935 196.15C194.911 194.174 197.592 193.064 200.387 193.064C203.181 193.064 205.862 194.174 207.838 196.15C209.815 198.127 210.925 200.807 210.925 203.602Z" fill="#F37168"/>
    <path d="M200.284 199.899C200.284 199.899 196.604 196.654 194 199.772C190.425 204.052 200.284 209.497 200.284 209.497C200.284 209.497 210.321 203.878 206.81 199.549C204.154 196.278 200.284 199.899 200.284 199.899Z" fill="white"/>
    <path d="M268.63 203.602C268.63 206.673 267.41 209.618 265.238 211.79C263.067 213.961 260.122 215.181 257.051 215.181C253.98 215.181 251.035 213.961 248.864 211.789C246.693 209.618 245.473 206.673 245.473 203.602C245.473 200.531 246.693 197.587 248.864 195.415C251.035 193.244 253.98 192.024 257.051 192.024C260.122 192.024 263.066 193.244 265.238 195.415C267.409 197.586 268.629 200.531 268.63 203.602Z" fill="#430A56"/>
    <path d="M256.793 195.975C258.293 195.768 259.593 199.496 259.485 200.686C259.377 201.876 262.285 200.531 263.679 201.566C265.073 202.601 264.663 207.986 263.679 208.348C262.695 208.71 258.728 208.762 257.45 208.089C256.805 207.701 256.061 207.511 255.31 207.542L254.652 201.909C255.272 201.683 255.842 201.338 256.329 200.892C257.208 200.114 256.793 195.975 256.793 195.975ZM250.114 209.175C250.477 209.486 254.566 210.469 254.773 208.398C254.98 206.327 253.945 201.926 253.945 201.926C253.945 201.926 251.099 201.782 250.114 202.286C249.735 202.484 249.752 208.867 250.115 209.178L250.114 209.175Z" fill="white"/>
    <path d="M229.439 199.818H215.718C214.366 199.818 213.27 200.914 213.27 202.266V202.267C213.27 203.619 214.366 204.715 215.718 204.715H229.439C230.791 204.715 231.887 203.619 231.887 202.267V202.266C231.887 200.914 230.791 199.818 229.439 199.818Z" fill="#810A8B"/>
    <path d="M229.439 206.164H215.718C214.366 206.164 213.27 207.26 213.27 208.612V208.613C213.27 209.965 214.366 211.061 215.718 211.061H229.439C230.791 211.061 231.887 209.965 231.887 208.613V208.612C231.887 207.26 230.791 206.164 229.439 206.164Z" fill="#810A8B"/>
    <path d="M288.861 199.818H275.14C273.788 199.818 272.692 200.914 272.692 202.266V202.267C272.692 203.619 273.788 204.715 275.14 204.715H288.861C290.213 204.715 291.309 203.619 291.309 202.267V202.266C291.309 200.914 290.213 199.818 288.861 199.818Z" fill="#810A8B"/>
    <path d="M288.861 206.164H275.14C273.788 206.164 272.692 207.26 272.692 208.612V208.613C272.692 209.965 273.788 211.061 275.14 211.061H288.861C290.213 211.061 291.309 209.965 291.309 208.613V208.612C291.309 207.26 290.213 206.164 288.861 206.164Z" fill="#810A8B"/>
    <path d="M287.993 239.934H198.553C198.023 239.932 197.515 239.721 197.14 239.346C196.766 238.972 196.555 238.464 196.553 237.934C196.555 237.404 196.766 236.897 197.14 236.522C197.515 236.147 198.023 235.936 198.553 235.934H287.993C288.523 235.936 289.03 236.147 289.405 236.522C289.779 236.897 289.991 237.404 289.993 237.934C289.991 238.464 289.779 238.972 289.405 239.346C289.03 239.721 288.523 239.932 287.993 239.934Z" fill="#810A8B"/>
    <path d="M289.31 247.486H199.87C199.34 247.484 198.833 247.273 198.458 246.898C198.083 246.523 197.872 246.016 197.87 245.486C197.872 244.956 198.083 244.448 198.458 244.074C198.833 243.699 199.34 243.488 199.87 243.486H289.31C289.84 243.488 290.348 243.699 290.722 244.074C291.097 244.448 291.308 244.956 291.31 245.486C291.308 246.016 291.097 246.523 290.722 246.898C290.348 247.273 289.84 247.484 289.31 247.486Z" fill="#810A8B"/>
    <path d="M275.703 255.683H186.263C185.733 255.681 185.225 255.47 184.851 255.095C184.476 254.721 184.265 254.213 184.263 253.683C184.265 253.153 184.476 252.646 184.851 252.271C185.225 251.896 185.733 251.685 186.263 251.683H275.703C276.232 251.685 276.74 251.896 277.115 252.271C277.49 252.646 277.701 253.153 277.703 253.683C277.701 254.213 277.49 254.721 277.115 255.095C276.74 255.47 276.232 255.681 275.703 255.683Z" fill="#810A8B"/>
    <path d="M174.383 315.13H169.569C168.689 315.13 167.839 314.805 167.184 314.218C166.528 313.63 166.112 312.821 166.016 311.946L138.916 65.131C138.856 64.5844 138.912 64.0311 139.08 63.5075C139.248 62.9839 139.525 62.5016 139.892 62.092C140.259 61.6824 140.708 61.3548 141.21 61.1304C141.712 60.9061 142.256 60.7901 142.806 60.79H146.937C147.901 60.7902 148.831 61.1461 149.549 61.7896C150.267 62.433 150.722 63.3188 150.827 64.277L177.934 311.167C177.989 311.666 177.937 312.171 177.784 312.649C177.63 313.127 177.378 313.567 177.043 313.941C176.708 314.315 176.298 314.614 175.84 314.819C175.381 315.024 174.885 315.13 174.383 315.13Z" fill="#430A56"/>
    <path d="M268.698 308.122H244.388C244.03 308.121 243.687 307.979 243.434 307.725C243.181 307.472 243.039 307.129 243.038 306.771C243.039 306.414 243.182 306.071 243.435 305.818C243.688 305.565 244.03 305.422 244.388 305.421H268.698C269.056 305.422 269.398 305.565 269.651 305.818C269.904 306.071 270.047 306.414 270.048 306.771C270.047 307.129 269.905 307.472 269.652 307.725C269.399 307.979 269.056 308.121 268.698 308.122Z" fill="#0F2D5C"/>
    <path d="M240.957 67.3371C241.914 67.3371 242.691 66.5608 242.691 65.6031C242.691 64.6455 241.914 63.8691 240.957 63.8691C239.999 63.8691 239.223 64.6455 239.223 65.6031C239.223 66.5608 239.999 67.3371 240.957 67.3371Z" fill="#0F2D5C"/>
    <path d="M247.76 67.3371C248.718 67.3371 249.494 66.5608 249.494 65.6031C249.494 64.6455 248.718 63.8691 247.76 63.8691C246.803 63.8691 246.026 64.6455 246.026 65.6031C246.026 66.5608 246.803 67.3371 247.76 67.3371Z" fill="#0F2D5C"/>
    <path d="M230.152 67.3371H211.477C211.018 67.3358 210.577 67.1527 210.252 66.8278C209.928 66.5029 209.744 66.0626 209.743 65.6031C209.744 65.1437 209.928 64.7034 210.252 64.3785C210.577 64.0536 211.018 63.8705 211.477 63.8691H230.152C230.612 63.8705 231.052 64.0536 231.377 64.3785C231.702 64.7034 231.885 65.1437 231.886 65.6031C231.885 66.0626 231.702 66.5029 231.377 66.8278C231.052 67.1527 230.612 67.3358 230.152 67.3371Z" fill="#0F2D5C"/>
    <path d="M249.017 223.993H101.964C97.5456 223.993 93.9639 227.575 93.9639 231.993V309.795C93.9639 314.213 97.5456 317.795 101.964 317.795H249.017C253.435 317.795 257.017 314.213 257.017 309.795V231.993C257.017 227.575 253.435 223.993 249.017 223.993Z" fill="#0F2D5C"/>
    <path d="M245.829 228.128H105.15C102.941 228.128 101.15 229.919 101.15 232.128V309.661C101.15 311.87 102.941 313.661 105.15 313.661H245.829C248.039 313.661 249.829 311.87 249.829 309.661V232.128C249.829 229.919 248.039 228.128 245.829 228.128Z" fill="#7A1999"/>
    <g opacity="0.4">
        <g opacity="0.4">
            <path opacity="0.4" d="M173.49 296.997C165.523 296.988 157.885 293.819 152.251 288.185C146.618 282.551 143.449 274.913 143.439 266.946C143.448 258.979 146.618 251.34 152.251 245.706C157.885 240.072 165.523 236.903 173.49 236.894C181.458 236.903 189.097 240.072 194.73 245.706C200.364 251.34 203.533 258.979 203.542 266.946C203.533 274.913 200.364 282.552 194.73 288.185C189.096 293.819 181.458 296.988 173.49 296.997ZM173.49 240.897C166.584 240.905 159.963 243.652 155.079 248.535C150.195 253.419 147.448 260.04 147.44 266.947C147.448 273.853 150.195 280.475 155.079 285.358C159.963 290.241 166.584 292.988 173.49 292.996C180.397 292.988 187.018 290.241 191.902 285.358C196.785 280.475 199.533 273.853 199.541 266.947C199.533 260.04 196.786 253.419 191.903 248.535C187.019 243.651 180.397 240.904 173.49 240.896V240.897Z" fill="white"/>
        </g>
    </g>
    <path opacity="0.4" d="M188.655 263.618C189.239 263.956 189.724 264.441 190.061 265.025C190.398 265.61 190.576 266.272 190.576 266.947C190.576 267.621 190.398 268.284 190.061 268.868C189.724 269.453 189.239 269.938 188.655 270.275L179.196 275.736L169.737 281.197C169.152 281.535 168.49 281.712 167.815 281.712C167.14 281.712 166.477 281.535 165.893 281.198C165.309 280.86 164.824 280.375 164.486 279.791C164.149 279.207 163.971 278.544 163.971 277.869V256.018C163.971 255.344 164.148 254.681 164.486 254.096C164.823 253.512 165.308 253.027 165.893 252.689C166.477 252.352 167.14 252.174 167.815 252.174C168.489 252.174 169.152 252.352 169.737 252.689L179.196 258.151L188.655 263.618Z" fill="white"/>
    <path opacity="0.4" d="M117.444 304.602C117.588 304.685 117.706 304.804 117.789 304.948C117.872 305.091 117.916 305.254 117.916 305.42C117.916 305.586 117.872 305.748 117.789 305.892C117.706 306.036 117.588 306.155 117.444 306.238L115.119 307.581L112.793 308.924C112.649 309.007 112.487 309.05 112.321 309.05C112.155 309.05 111.992 309.006 111.849 308.924C111.705 308.841 111.586 308.722 111.503 308.578C111.42 308.434 111.376 308.272 111.376 308.106V302.736C111.376 302.57 111.42 302.407 111.503 302.264C111.586 302.12 111.705 302.001 111.849 301.918C111.992 301.835 112.155 301.792 112.321 301.792C112.487 301.791 112.649 301.835 112.793 301.918L115.119 303.261L117.444 304.602Z" fill="white"/>
    <path opacity="0.4" d="M125.873 309.051C125.705 309.051 125.544 308.984 125.425 308.865C125.306 308.746 125.24 308.585 125.239 308.417V302.417C125.24 302.249 125.306 302.088 125.425 301.969C125.544 301.85 125.705 301.783 125.873 301.783C126.041 301.783 126.202 301.85 126.321 301.969C126.44 302.088 126.507 302.249 126.507 302.417V308.417C126.507 308.585 126.44 308.746 126.321 308.865C126.202 308.984 126.041 309.051 125.873 309.051Z" fill="white"/>
    <path opacity="0.4" d="M128.723 309.051C128.555 309.051 128.394 308.984 128.275 308.865C128.156 308.746 128.089 308.585 128.089 308.417V302.417C128.089 302.249 128.156 302.088 128.275 301.969C128.394 301.85 128.555 301.783 128.723 301.783C128.891 301.784 129.052 301.851 129.17 301.969C129.289 302.088 129.355 302.249 129.356 302.417V308.417C129.355 308.585 129.289 308.746 129.17 308.865C129.052 308.984 128.891 309.051 128.723 309.051Z" fill="white"/>
    <path opacity="0.4" d="M235.071 304.696V304.237C235.071 303.955 235.183 303.684 235.383 303.484C235.582 303.284 235.853 303.172 236.136 303.172H236.685V301.789H235.407C234.951 301.789 234.513 301.97 234.19 302.293C233.868 302.615 233.687 303.053 233.687 303.509V304.696H235.071Z" fill="white"/>
    <path opacity="0.4" d="M239.568 305.963V306.603C239.568 306.886 239.456 307.157 239.256 307.356C239.056 307.556 238.786 307.668 238.503 307.668H237.954V309.051H239.232C239.688 309.051 240.126 308.87 240.448 308.548C240.771 308.225 240.952 307.788 240.952 307.331V305.963H239.568Z" fill="white"/>
    <path opacity="0.4" d="M237.953 303.168H238.502C238.785 303.168 239.055 303.28 239.255 303.48C239.455 303.68 239.567 303.951 239.567 304.233V304.692H240.95V303.505C240.95 303.049 240.769 302.612 240.446 302.289C240.124 301.966 239.686 301.785 239.23 301.785H237.952L237.953 303.168Z" fill="white"/>
    <path opacity="0.4" d="M236.685 307.668H236.136C235.997 307.668 235.858 307.641 235.729 307.587C235.6 307.534 235.482 307.455 235.383 307.356C235.284 307.258 235.206 307.14 235.152 307.011C235.099 306.882 235.071 306.743 235.071 306.603V305.963H233.688V307.331C233.688 307.788 233.87 308.225 234.192 308.548C234.515 308.87 234.952 309.051 235.408 309.051H236.686L236.685 307.668Z" fill="white"/>
    <path opacity="0.4" d="M217.217 304.695H144.102C143.947 304.211 143.642 303.788 143.231 303.489C142.82 303.189 142.324 303.028 141.816 303.028C141.307 303.028 140.812 303.189 140.401 303.489C139.99 303.788 139.685 304.211 139.53 304.695H137.447C137.253 304.696 137.067 304.773 136.929 304.91C136.792 305.048 136.715 305.234 136.714 305.428C136.714 305.622 136.792 305.808 136.929 305.946C137.066 306.083 137.252 306.161 137.447 306.162H139.53C139.685 306.646 139.99 307.068 140.401 307.368C140.812 307.668 141.307 307.829 141.816 307.829C142.324 307.829 142.82 307.668 143.231 307.368C143.642 307.068 143.947 306.646 144.102 306.162H217.217C217.411 306.161 217.598 306.084 217.735 305.946C217.873 305.809 217.95 305.622 217.951 305.428C217.95 305.234 217.872 305.047 217.735 304.91C217.597 304.773 217.411 304.695 217.217 304.695Z" fill="white"/>
    <path opacity="0.4" d="M222.448 303.028H220.849V308.121H222.448L225.249 310.489V300.66L222.448 303.028Z" fill="white"/>
    <path opacity="0.4" d="M228.225 305.43L228.696 304.959C228.774 304.881 228.818 304.774 228.818 304.664C228.818 304.553 228.774 304.447 228.696 304.369C228.618 304.291 228.511 304.247 228.401 304.247C228.29 304.247 228.184 304.291 228.106 304.369L227.635 304.841L227.163 304.369C227.085 304.291 226.979 304.247 226.868 304.247C226.758 304.247 226.652 304.291 226.574 304.369C226.496 304.447 226.452 304.553 226.452 304.664C226.452 304.774 226.496 304.881 226.574 304.959L227.045 305.43L226.574 305.902C226.496 305.98 226.452 306.086 226.452 306.197C226.452 306.307 226.496 306.413 226.574 306.492C226.652 306.57 226.758 306.614 226.868 306.614C226.979 306.614 227.085 306.57 227.163 306.492L227.635 306.02L228.106 306.492C228.184 306.57 228.29 306.614 228.401 306.614C228.511 306.614 228.618 306.57 228.696 306.492C228.774 306.413 228.818 306.307 228.818 306.197C228.818 306.086 228.774 305.98 228.696 305.902L228.225 305.43Z" fill="white"/>
    <path d="M374.918 328.175C374.918 328.175 386.798 329.495 389.626 328.175C392.454 326.855 393.397 329.901 386.043 333.563C378.689 337.225 375.483 340.054 373.032 339.112C370.581 338.17 368.884 333.438 369.261 330.712C369.638 327.986 374.918 328.175 374.918 328.175Z" fill="#0F2D5C"/>
    <path d="M321.553 326.667C321.553 326.667 320.987 335.719 323.815 337.604C326.643 339.489 330.073 342.035 323.439 342.035C316.805 342.035 315.039 338.924 312.964 335.718C310.889 332.512 308.733 330.029 311.683 327.861C314.633 325.693 314.764 323.649 315.33 323.649C315.896 323.649 321.553 326.667 321.553 326.667Z" fill="#0F2D5C"/>
    <path d="M360.768 241.717C360.768 294.891 322.375 331.763 322.375 331.763C322.375 331.763 313.251 328.549 312.968 325.155C312.685 321.761 327.945 297.436 327.945 279.335V224.746L360.768 241.717Z" fill="#0E3A82"/>
    <path d="M327.943 224.746V269.865C333.884 283.302 337.269 297.728 337.927 312.405C348.572 296.475 360.766 271.685 360.766 241.716L327.943 224.746Z" fill="#0F2D5C"/>
    <path d="M327.957 215.695C327.108 260.101 365.701 332.226 368.351 333.357C371.001 334.488 378.503 330.726 378.072 327.983C367.837 262.93 365.857 219.655 365.857 219.655L327.957 215.695Z" fill="#0E3A82"/>
    <path d="M370.382 159.278C371 159.82 371.761 160.172 372.574 160.291C373.387 160.41 374.217 160.291 374.965 159.949C377.51 158.723 386.805 152.155 386.522 150.549C386.239 148.943 381.896 148.563 381.896 148.563C381.896 148.563 368.441 159.199 370.382 159.278Z" fill="#255096"/>
    <path d="M372.83 159.028C371.087 158.749 376.823 154.188 378.698 152.303C379.658 151.309 380.689 150.384 381.783 149.537C381.783 149.537 384.989 149.927 384.989 150.549C384.989 151.171 375.795 158.512 375.795 158.512C374.834 158.815 373.837 158.989 372.83 159.028Z" fill="#FFC34E"/>
    <path d="M361.577 167.233C361.577 167.233 364.924 161.576 366.527 160.068C368.13 158.56 373.541 155.635 374.362 155.617C375.762 155.586 369.544 159.785 369.544 159.785C369.544 159.785 370.392 165.253 369.638 167.233C368.884 169.213 360.964 171.853 360.964 171.853L361.577 167.233Z" fill="#F09959"/>
    <path d="M355.354 173.171C355.354 173.171 360.822 164.971 362.048 165.534C363.274 166.097 366.573 173.171 366.573 173.171C366.573 173.171 356.957 183.165 356.957 181.279C356.957 179.393 355.354 173.171 355.354 173.171Z" fill="#91D5FF"/>
    <path d="M340.231 129.24C340.231 129.24 334.574 149.228 330.803 157.525C327.032 165.822 325.146 181.285 325.903 208.439C326.66 235.593 321.378 234.839 329.298 238.233C337.218 241.627 365.504 235.97 369.275 227.296C373.046 218.622 366.75 183.307 357.395 170.348C348.16 157.554 344.007 153 344.007 149.982C344.007 146.964 347.657 134.142 347.657 134.142L340.231 129.24Z" fill="#F09959"/>
    <path d="M369.271 227.297C373.042 218.623 366.746 183.308 357.391 170.349C353.091 164.391 349.891 160.22 347.702 157.159C343.254 154.409 338.5 152.191 333.535 150.549C332.586 153.223 331.647 155.668 330.802 157.526C327.031 165.826 325.145 181.286 325.902 208.44C326.659 235.594 321.377 234.84 329.297 238.234C337.217 241.628 365.5 235.972 369.271 227.297Z" fill="#B3E2FF"/>
    <path d="M330.173 146.969C330.267 145.417 350.413 153.38 350.539 154.889C351.014 158.41 352.019 161.838 353.522 165.057C355.19 168.089 325.475 185.024 326.567 176.779C327.659 168.534 329.922 151.114 330.173 146.969Z" fill="#B3E2FF"/>
    <path d="M344.02 150.319C344.01 150.205 344.003 150.092 344.003 149.982C344.003 146.965 347.653 134.142 347.653 134.142L340.231 129.242C340.231 129.242 338.918 133.883 337.131 139.619C339.44 146.499 341.601 148.851 344.02 150.319Z" fill="#E38540"/>
    <path d="M361.042 139.027C359.474 146.135 354.564 151.19 348.89 149.8C345.791 148.802 343.187 146.663 341.607 143.816C340.027 140.969 339.589 137.627 340.382 134.469C342.091 127.393 347.847 122.62 353.551 123.879C359.255 125.138 362.61 131.919 361.042 139.027Z" fill="#F09959"/>
    <path d="M367.483 185.299C372.632 176.406 373.208 168.099 376.857 165.506C381.99 161.857 386.205 153.696 384.347 153.374C382.489 153.052 374.964 159.946 374.964 159.946C374.964 159.946 376.922 157.266 376.454 157.046C375.986 156.826 372.196 159.574 371.609 162.824C371.022 166.074 363.74 181.012 357.632 185.796C351.524 190.58 362.334 194.193 367.483 185.299Z" fill="#F09959"/>
    <path d="M334.125 162.892C325 165.164 329.174 192.719 336.867 209.062C344.56 225.405 359.016 211.286 364.422 207.282C366.095 206.078 367.548 204.593 368.716 202.895C366.98 193.143 364.005 182.681 360.332 175.319C351.72 185.428 347.625 159.531 334.125 162.892Z" fill="#91D5FF"/>
    <path d="M336.865 160.913C325.391 162.063 331.673 190.707 340.065 202.273C348.457 213.839 360.399 202.65 364.165 195.988C367.931 189.326 375.574 177.996 375.574 170.625C375.574 169.242 372.745 168.959 369.351 169.21C366.151 169.447 351.716 189.324 351.716 189.324C351.716 189.324 346.898 159.908 336.865 160.913Z" fill="#B3E2FF"/>
    <path d="M364.546 124.206C371.562 127.16 367.359 136.506 363.66 136.854C359.961 137.202 355.683 130.383 353.486 130.154C351.289 129.925 353.93 133.969 351.974 134.894C350.923 135.32 349.983 135.983 349.229 136.831C348.474 137.679 347.925 138.689 347.624 139.783C347.054 142.211 345.493 147.495 348.045 147.726C350.597 147.957 353.372 145.183 355.106 145.067C356.2 145.007 357.296 145.138 358.346 145.453C358.346 145.453 353.945 151.541 350.708 151.888C347.471 152.235 343.947 147.508 341.434 143.513C338.921 139.518 339.988 136.856 339.988 136.856C339.988 136.856 337.417 139.75 335.799 139.518C334.181 139.286 338.227 136.975 338.342 130.154C338.457 123.333 341.463 119.754 345.163 119.754C348.863 119.754 348.4 117.871 354.05 118.02C359.141 118.144 362.899 123.513 364.546 124.206Z" fill="#0F2D5C"/>
    <path d="M349.119 138.142C349.283 139.903 348.379 141.427 347.099 141.542C345.819 141.657 344.651 140.329 344.487 138.568C344.323 136.807 345.227 135.283 346.507 135.168C347.787 135.053 348.956 136.381 349.119 138.142Z" fill="#F09959"/>
    <path d="M29.7722 309.253C23.7142 316.003 12.377 314.996 14.195 317.907C16.013 320.818 24.1651 320.072 28.7521 319.828C36.3801 319.422 34.2721 315.051 34.8781 313.493C35.4841 311.935 29.7722 309.253 29.7722 309.253Z" fill="#0F2D5C"/>
    <path d="M81.1828 213.797C81.1828 213.797 43.333 242.873 43.853 248.844C44.373 254.815 71.753 304.632 74.029 304.644C76.305 304.656 81.467 302.097 82.239 300.911C83.011 299.725 80.717 265.23 77.862 261.711C75.007 258.192 99.7438 222.883 99.7438 222.883L81.1828 213.797Z" fill="#0F2D5C"/>
    <path d="M114.078 207.567C114.078 207.567 122.723 227.297 117.686 232.749C112.649 238.201 94.9731 242.235 89.0251 251.181C75.9491 270.85 75.7851 284.793 57.8721 299.864C39.9591 314.935 34.8052 315.304 34.8052 315.304L28.7959 310.035C28.7959 310.035 48.7862 282.853 56.5742 261.046C64.3622 239.239 84.874 213.537 84.874 213.537L114.078 207.567Z" fill="#0E3A82"/>
    <path d="M78.866 161.131C78.3192 161.611 77.6452 161.922 76.9253 162.028C76.2054 162.133 75.4705 162.028 74.8091 161.725C72.5551 160.64 64.3249 154.825 64.5759 153.405C64.8269 151.985 68.676 151.646 68.676 151.646C68.676 151.646 80.586 161.064 78.866 161.131Z" fill="#255096"/>
    <path d="M76.6987 160.912C78.2417 160.665 73.1637 156.627 71.5037 154.957C70.6526 154.076 69.7396 153.258 68.7717 152.508C68.7717 152.508 65.9326 152.854 65.9326 153.408C65.9326 153.962 74.0728 160.459 74.0728 160.459C74.924 160.726 75.8071 160.878 76.6987 160.912Z" fill="#FFC34E"/>
    <path d="M86.6628 168.178C86.6628 168.178 83.6988 163.169 82.2798 161.833C80.8608 160.497 76.0688 157.908 75.3418 157.892C74.0988 157.865 79.6086 161.582 79.6086 161.582C79.6086 161.582 78.8576 166.424 79.5256 168.182C80.1936 169.94 87.2058 172.273 87.2058 172.273L86.6628 168.178Z" fill="#F09959"/>
    <path d="M92.1733 173.434C92.1733 173.434 87.3313 166.171 86.2463 166.672C85.1613 167.173 82.2393 173.434 82.2393 173.434C82.2393 173.434 90.7544 182.283 90.7544 180.613C91.0635 178.19 91.5376 175.792 92.1733 173.434Z" fill="#FB8627"/>
    <path d="M105.562 134.538C105.562 134.538 110.571 152.238 113.91 159.582C117.249 166.926 118.919 180.619 118.251 204.662C117.583 228.705 122.258 228.037 115.246 231.042C108.234 234.047 83.1893 229.042 79.8463 221.358C76.5033 213.674 82.0823 182.409 90.3653 170.935C98.5433 159.607 102.219 155.574 102.219 152.903C102.219 150.232 98.9874 138.878 98.9874 138.878L105.562 134.538Z" fill="#F09959"/>
    <path d="M79.8496 221.358C76.5106 213.678 82.0857 182.41 90.3687 170.936C94.1767 165.661 97.0085 161.968 98.9475 159.257C102.885 156.822 107.095 154.857 111.49 153.404C112.33 155.772 113.162 157.937 113.91 159.582C117.249 166.928 118.918 180.619 118.25 204.662C117.583 228.705 122.258 228.037 115.246 231.042C108.234 234.047 83.1886 229.039 79.8496 221.358Z" fill="url(#paint1_linear_3003_5424)"/>
    <path d="M114.467 150.232C114.384 148.858 96.5465 155.909 96.4345 157.245C96.0137 160.361 95.1231 163.395 93.7934 166.245C92.3154 168.93 118.626 183.924 117.659 176.624C116.692 169.324 114.689 153.905 114.467 150.232Z" fill="url(#paint2_linear_3003_5424)"/>
    <path d="M102.208 153.202C102.219 153.102 102.224 153.002 102.224 152.902C102.224 150.23 98.9922 138.877 98.9922 138.877L105.563 134.536C105.563 134.536 106.726 138.645 108.304 143.724C106.263 149.823 104.353 151.902 102.208 153.202Z" fill="#E38540"/>
    <path d="M89.0289 143.174C90.2429 148.674 94.0429 152.587 98.4339 151.511C100.833 150.739 102.848 149.083 104.071 146.879C105.293 144.675 105.632 142.089 105.018 139.645C103.695 134.169 99.241 130.474 94.826 131.445C90.411 132.416 87.8129 137.673 89.0289 143.174Z" fill="#F09959"/>
    <path d="M81.4333 184.173C76.8733 176.299 76.3645 168.944 73.1335 166.648C68.5895 163.417 64.8564 156.191 66.5024 155.907C68.1484 155.623 74.8093 161.726 74.8093 161.726C74.8093 161.726 73.0755 159.353 73.4895 159.155C73.9035 158.957 77.2595 161.393 77.7805 164.271C78.3015 167.149 84.7475 180.371 90.1555 184.61C95.5635 188.849 85.9933 192.047 81.4333 184.173Z" fill="#F09959"/>
    <path d="M110.966 164.333C119.046 166.344 115.35 190.743 108.539 205.213C101.728 219.683 88.928 207.182 84.139 203.638C82.6584 202.571 81.3728 201.257 80.339 199.753C81.875 191.119 84.5091 181.853 87.7611 175.337C95.3911 184.286 99.0159 161.357 110.966 164.333Z" fill="url(#paint3_linear_3003_5424)"/>
    <path d="M108.542 162.58C118.702 163.599 113.142 188.96 105.71 199.201C98.2777 209.442 87.7097 199.535 84.3667 193.636C81.0237 187.737 74.2666 177.706 74.2666 171.179C74.2666 169.955 76.7666 169.704 79.7766 169.927C82.6066 170.137 95.3916 187.736 95.3916 187.736C95.3916 187.736 99.6587 161.692 108.542 162.58Z" fill="url(#paint4_linear_3003_5424)"/>
    <path d="M74.0291 298.433C74.4871 309.333 62.029 318.163 67.218 318.942C72.407 319.721 76.4982 316.211 78.8682 313.552C81.2382 310.893 83.8122 310.107 83.1182 307.095C82.4242 304.083 82.3791 297.731 81.6541 295.654C80.9291 293.577 74.0291 298.433 74.0291 298.433Z" fill="#0F2D5C"/>
    <path d="M93.073 126.097C82.473 126.822 83.822 143.257 83.822 143.257C83.822 143.257 92.568 143.51 95.176 142.757C97.0667 142.106 98.8431 141.161 100.44 139.957C100.44 139.957 102.04 146.182 106.428 146.529L110.811 146.876C110.811 146.876 113.702 135.058 111.411 129.729C106.676 118.679 97.209 124.21 93.073 126.097Z" fill="#0F2D5C"/>
    <path d="M104.642 142.007C104.014 143.622 102.529 144.552 101.324 144.084C100.119 143.616 99.6522 141.927 100.28 140.311C100.908 138.695 102.393 137.765 103.598 138.234C104.803 138.703 105.27 140.395 104.642 142.007Z" fill="#F09959"/>
    <path d="M109.88 138.44C109.88 138.44 112.424 147.222 115.955 147.671C119.486 148.12 142.055 149.428 136.289 173.114C132.278 189.582 125.164 192.332 132.366 198.384C138.366 203.426 145.454 197.115 145.454 197.115C145.454 197.115 148.923 215.934 134.905 215.693C120.887 215.452 114.193 200.714 119.905 187.193C125.617 173.672 114.305 170.212 113.837 162.616C113.486 158.624 113.486 154.609 113.837 150.616L109.88 145.9V138.44Z" fill="#0F2D5C"/>
    <path d="M321.48 89.285C321.48 92.0799 320.37 94.7603 318.394 96.7366C316.418 98.7128 313.737 99.8231 310.942 99.8231C308.148 99.8231 305.467 98.7128 303.491 96.7366C301.514 94.7603 300.404 92.0799 300.404 89.285C300.404 86.4902 301.514 83.8098 303.491 81.8336C305.467 79.8573 308.148 78.7471 310.942 78.7471C313.737 78.7471 316.418 79.8573 318.394 81.8336C320.37 83.8098 321.48 86.4902 321.48 89.285Z" fill="#F37168"/>
    <path d="M310.841 85.5812C310.841 85.5812 307.161 82.3362 304.557 85.4542C300.982 89.7342 310.841 95.1782 310.841 95.1782C310.841 95.1782 320.877 89.5602 317.367 85.2302C314.711 81.9552 310.841 85.5812 310.841 85.5812Z" fill="white"/>
    <path d="M293.818 69.7581C298.436 69.7581 302.179 66.0148 302.179 61.3971C302.179 56.7795 298.436 53.0361 293.818 53.0361C289.2 53.0361 285.457 56.7795 285.457 61.3971C285.457 66.0148 289.2 69.7581 293.818 69.7581Z" fill="#F37168"/>
    <path d="M293.738 58.458C293.738 58.458 290.818 55.883 288.751 58.358C285.915 61.758 293.738 66.074 293.738 66.074C293.738 66.074 301.702 61.616 298.916 58.18C296.809 55.582 293.738 58.458 293.738 58.458Z" fill="white"/>
    <path d="M312.891 40.8568C317.635 40.8568 321.481 37.0109 321.481 32.2668C321.481 27.5226 317.635 23.6768 312.891 23.6768C308.147 23.6768 304.301 27.5226 304.301 32.2668C304.301 37.0109 308.147 40.8568 312.891 40.8568Z" fill="#F37168"/>
    <path d="M312.807 29.2467C312.807 29.2467 309.807 26.6018 307.684 29.1468C304.769 32.6358 312.807 37.0738 312.807 37.0738C312.807 37.0738 320.988 32.4938 318.126 28.9648C315.962 26.2918 312.807 29.2467 312.807 29.2467Z" fill="white"/>
    <path d="M301.661 5.68799C301.661 7.19654 301.062 8.64332 299.995 9.71002C298.928 10.7767 297.482 11.376 295.973 11.376C294.465 11.376 293.018 10.7767 291.951 9.71002C290.884 8.64332 290.285 7.19654 290.285 5.68799C290.285 4.17944 290.884 2.73269 291.951 1.66599C293.018 0.599278 294.465 0 295.973 0C297.482 0 298.928 0.599278 299.995 1.66599C301.062 2.73269 301.661 4.17944 301.661 5.68799Z" fill="#F37168"/>
    <path d="M295.918 3.68916C295.918 3.68916 293.932 1.93716 292.525 3.62016C290.595 5.93016 295.918 8.86919 295.918 8.86919C295.918 8.86919 301.335 5.83619 299.44 3.49919C298.007 1.73219 295.918 3.68916 295.918 3.68916Z" fill="white"/>
    <path d="M114.872 113.123C118.987 109.008 118.987 102.336 114.872 98.2203C110.757 94.1049 104.084 94.1049 99.9691 98.2203C95.8537 102.336 95.8537 109.008 99.9691 113.123C104.084 117.239 110.757 117.239 114.872 113.123Z" fill="#F37168"/>
    <path d="M107.316 101.968C107.316 101.968 103.637 98.7228 101.032 101.841C97.4562 106.121 107.316 111.565 107.316 111.565C107.316 111.565 117.353 105.946 113.842 101.617C111.187 98.3428 107.316 101.968 107.316 101.968Z" fill="white"/>
    <path d="M115.281 80.0132C119.393 78.3222 121.356 73.6182 119.665 69.5064C117.974 65.3946 113.27 63.4322 109.158 65.1232C105.046 66.8141 103.084 71.5182 104.775 75.6299C106.466 79.7417 111.17 81.7041 115.281 80.0132Z" fill="#F37168"/>
    <path d="M112.142 69.7387C112.142 69.7387 109.331 67.2597 107.342 69.6387C104.611 72.9087 112.142 77.0677 112.142 77.0677C112.142 77.0677 119.81 72.7757 117.128 69.4677C115.099 66.9687 112.142 69.7387 112.142 69.7387Z" fill="white"/>
    <path d="M88.8146 54.909C92.5702 54.909 95.6146 51.8645 95.6146 48.109C95.6146 44.3534 92.5702 41.309 88.8146 41.309C85.0591 41.309 82.0146 44.3534 82.0146 48.109C82.0146 51.8645 85.0591 54.909 88.8146 54.909Z" fill="#F37168"/>
    <path d="M88.7489 45.7192C88.7489 45.7192 86.3737 43.6252 84.6937 45.6372C82.3857 48.3992 88.7489 51.9122 88.7489 51.9122C88.7489 51.9122 95.2258 48.2861 92.9598 45.4931C91.2458 43.3801 88.7489 45.7192 88.7489 45.7192Z" fill="white"/>
    <path d="M284.191 183.308H180.561C179.315 183.308 178.112 182.849 177.181 182.019C176.251 181.19 175.658 180.046 175.516 178.808L164.203 79.5158C164.122 78.805 164.192 78.085 164.408 77.4032C164.625 76.7214 164.983 76.093 165.46 75.5593C165.936 75.0255 166.52 74.5985 167.173 74.3062C167.826 74.0138 168.533 73.8627 169.248 73.8628H272.877C274.123 73.8625 275.327 74.3211 276.257 75.1509C277.188 75.9808 277.781 77.124 277.923 78.3628L289.236 177.655C289.317 178.366 289.247 179.085 289.03 179.767C288.813 180.449 288.455 181.077 287.979 181.611C287.503 182.145 286.919 182.572 286.266 182.864C285.613 183.157 284.906 183.308 284.191 183.308Z" fill="#430A56"/>
    <path d="M237.523 95.3867C241.898 104.136 238.277 114.211 229.671 117.771C221.009 121.354 211.538 119.319 207.163 110.571C202.788 101.823 206.037 91.3297 214.421 87.1377C222.805 82.9457 233.148 86.6377 237.523 95.3867Z" fill="#FFC34E"/>
    <path d="M213.941 118.86C212.966 118.86 211.053 118.516 208.625 116.36C206.488 114.324 205.075 111.646 204.598 108.733C203.836 104.759 204.333 100.192 206.074 95.1581C206.095 95.0977 206.127 95.042 206.17 94.9942C206.212 94.9465 206.264 94.9075 206.321 94.8797C206.379 94.8518 206.442 94.8356 206.505 94.8319C206.569 94.8282 206.633 94.8371 206.694 94.8581C206.754 94.8791 206.81 94.9118 206.857 94.9543C206.905 94.9968 206.944 95.0484 206.972 95.106C207 95.1636 207.016 95.226 207.02 95.2899C207.024 95.3537 207.014 95.4177 206.993 95.4781C205.308 100.348 204.825 104.747 205.555 108.551C205.991 111.253 207.295 113.738 209.271 115.632C212.32 118.337 214.363 117.85 214.383 117.845C214.508 117.811 214.641 117.829 214.753 117.893C214.866 117.958 214.948 118.064 214.982 118.189C215 118.25 215.006 118.315 214.998 118.378C214.991 118.441 214.972 118.503 214.941 118.559C214.909 118.614 214.868 118.663 214.817 118.703C214.767 118.743 214.71 118.772 214.649 118.789C214.417 118.843 214.179 118.867 213.941 118.86Z" fill="#FFC34E"/>
    <path d="M258.812 130.984C258.812 130.984 256.612 130.21 255.444 125.415C254.844 122.947 256.444 118.679 257.778 117.345C256.911 114.877 253.577 105.667 255.043 105.673C256.525 105.679 259.844 115.873 259.844 115.873C259.844 115.873 261.644 106.402 262.779 106.535C263.914 106.668 262.779 116.406 262.779 116.406C262.779 116.406 266.81 117.085 268.048 120.741C269.286 124.397 265.421 130.128 265.421 130.928C265.421 131.728 264.979 134.281 264.979 134.281L258.644 133.281L258.812 130.984Z" fill="#E38540"/>
    <path d="M263.783 116.091C264.853 116.3 265.815 116.879 266.503 117.725C266.985 117.912 267.395 118.247 267.673 118.683C267.951 119.118 268.084 119.631 268.051 120.147C267.997 121.035 265.777 124.047 264.28 125.232C262.448 126.683 261.553 125.282 261.98 124.815C262.407 124.348 261.113 124.348 260.58 123.748C260.047 123.148 262.247 118.904 262.58 117.725C262.913 116.546 263.178 116.014 263.783 116.091Z" fill="#F09959"/>
    <path d="M260.497 122.88C263.581 123.413 265.982 123.28 265.849 122.413C265.716 121.546 262.837 120.193 262.049 119.699C261.261 119.205 260.497 122.88 260.497 122.88Z" fill="#E38540"/>
    <path d="M260.447 125.482C262.147 128.69 260.114 131.351 258.813 130.982C257.512 130.613 255.588 127.682 255.313 124.282C255.038 120.882 255.244 120.815 256.513 119.082C257.782 117.349 261.381 119.015 262.381 119.982C263.381 120.949 265.516 121.816 264.581 122.416C263.646 123.016 260.981 122.416 260.01 122.016C259.039 121.616 259.11 122.616 258.645 123.083C258.18 123.55 259.247 123.213 260.447 125.482Z" fill="#F09959"/>
    <path d="M227.318 129.433C238.369 135.486 251.506 165.042 251.506 165.042C251.506 165.042 254.929 138.616 257.978 132.685C258.76 131.164 264.978 132.211 265.978 133.748C266.978 135.285 269.178 173.319 264.178 179.914C259.178 186.509 246.97 184.814 246.97 184.814L230.953 170.905L227.318 129.433Z" fill="#A8CEFF"/>
    <path d="M256.448 136.875C253.784 145.303 250.377 163.499 251.248 168.434C252.119 173.369 254.048 175.504 254.048 175.504C254.048 175.504 252.581 163.299 253.581 156.495C254.581 149.691 256.448 136.875 256.448 136.875Z" fill="#93BBF0"/>
    <path d="M245.137 183.222C250.765 182.637 255.537 182.108 254.376 182.108C251.776 182.108 239.702 175.145 240.703 168.368C241.704 161.591 241.837 148.159 238.503 142.222L237.38 139.746C233.78 134.822 231.169 131.546 227.318 129.433L230.95 170.902L245.137 183.222Z" fill="#93BBF0"/>
    <path d="M209.01 126.364C209.01 126.364 193.17 135.215 189.478 137.097C185.786 138.979 199.822 194.226 202.944 196.597C206.066 198.968 233.544 197.004 236.678 194.021C239.812 191.038 234.278 181.883 236.985 163.554C239.692 145.225 228.726 129.399 227.317 129.434C225.908 129.469 216.717 126.367 216.717 126.367L209.01 126.364Z" fill="#A8CEFF"/>
    <path d="M202.945 196.596C206.067 198.964 225.734 199.017 234.105 196.412C235.051 196.118 239.34 194.412 239.44 192.802C238.43 192.612 234.419 193.094 232.791 192.72C227.129 191.42 224.011 184.405 224.011 184.405C224.011 184.405 220.893 183.283 213.918 180.329C206.943 177.375 209.818 168.429 209.651 164.492C209.484 160.555 202.758 147.671 190.122 137.906L188.963 138.425C188.061 147.405 200.057 194.406 202.945 196.596Z" fill="#93BBF0"/>
    <path d="M188.234 138.137C180.604 162.537 169.786 190.217 171.509 190.217C173.232 190.217 217.046 191.988 218.77 190.517C220.494 189.046 220.001 183.38 219.756 182.642C219.511 181.904 194.846 177.527 194.846 177.527C194.846 177.527 198.094 171.198 199.325 158.827C200.556 146.456 189.682 133.51 188.234 138.137Z" fill="#A8CEFF"/>
    <path d="M214.813 105.167L208.666 127.629C208.666 127.629 219.053 143.841 221.908 142.401C224.763 140.961 220.308 129.224 220.308 127.629C220.308 126.034 224.76 109.578 224.76 109.578L214.813 105.167Z" fill="#F09959"/>
    <path d="M220.525 128.773C220.418 128.399 220.346 128.016 220.312 127.628C220.312 126.033 224.764 109.577 224.764 109.577L214.813 105.166L212.779 112.599C214.061 118.522 216.714 124.062 220.525 128.773Z" fill="#E38540"/>
    <path d="M237.811 104.795C238.982 111.308 238.211 119.959 232.427 122.158C226.643 124.357 219.677 120.15 216.866 112.758C214.055 105.366 216.466 97.5937 222.251 95.3947C228.036 93.1957 236.412 97.0137 237.811 104.795Z" fill="#F09959"/>
    <path d="M225.611 114.652C225.611 114.652 230.552 116.552 233.27 116.514C234.321 116.576 235.375 116.501 236.407 116.292C236.407 116.292 234.53 120.055 232.138 119.82C230.68 119.644 229.298 119.068 228.146 118.156C226.994 117.244 226.117 116.031 225.611 114.652Z" fill="white"/>
    <path d="M218.239 108.465C219.05 110.742 218.346 113.072 216.667 113.67C214.988 114.268 212.967 112.907 212.159 110.63C211.351 108.353 212.052 106.023 213.732 105.425C215.412 104.827 217.428 106.183 218.239 108.465Z" fill="#F09959"/>
    <path d="M237.88 96.6118C235.911 111.896 217.341 109.927 217.341 109.927C217.341 109.927 213.511 104.892 211.788 107.533C210.065 110.174 214.179 92.0328 224.834 91.4658C228.335 91.2778 237.88 96.6118 237.88 96.6118Z" fill="#FFC34E"/>
    <path d="M208.949 99.5859C214.504 99.5859 219.007 95.3612 219.007 90.1499C219.007 84.9385 214.504 80.7139 208.949 80.7139C203.394 80.7139 198.891 84.9385 198.891 90.1499C198.891 95.3612 203.394 99.5859 208.949 99.5859Z" fill="#FFC34E"/>
    <path d="M153.375 88.0938C169.116 88.0938 181.876 75.3335 181.876 59.5928C181.876 43.8521 169.116 31.0918 153.375 31.0918C137.634 31.0918 124.874 43.8521 124.874 59.5928C124.874 75.3335 137.634 88.0938 153.375 88.0938Z" fill="#0E3A82"/>
    <path d="M152.738 40.8198C156.438 40.3098 159.619 49.4857 159.364 52.4197C159.109 55.3537 166.246 52.0377 169.688 54.5867C173.13 57.1357 172.11 70.3867 169.688 71.2817C167.266 72.1767 157.5 72.3018 154.354 70.6448C152.767 69.6901 150.935 69.2218 149.084 69.2977L147.464 55.4327C148.99 54.8784 150.392 54.0289 151.589 52.9327C153.757 51.0147 152.738 40.8198 152.738 40.8198ZM136.298 73.3198C137.189 74.0848 147.258 76.5058 147.768 71.4078C148.278 66.3098 145.729 55.4778 145.729 55.4778C145.729 55.4778 138.729 55.1238 136.299 56.3638C135.364 56.8398 135.406 72.5527 136.297 73.3177L136.298 73.3198Z" fill="white"/>
    <path d="M282.002 292.741C290.24 292.741 296.918 286.063 296.918 277.825C296.918 269.587 290.24 262.909 282.002 262.909C273.764 262.909 267.086 269.587 267.086 277.825C267.086 286.063 273.764 292.741 282.002 292.741Z" fill="#C1C765"/>
    <path d="M274.887 285.73C272.687 272.551 282.772 272.23 282.772 272.23V268.325L290.766 276.319L283.066 284.019V279.55C283.066 279.55 279.194 279.713 277.73 281.828C276.266 283.943 274.887 285.73 274.887 285.73Z" fill="white"/>
    <path d="M240.768 237.3C241.03 236.187 240.341 235.072 239.229 234.81C238.116 234.547 237.001 235.236 236.738 236.349C236.476 237.461 237.165 238.576 238.277 238.839C239.39 239.102 240.505 238.413 240.768 237.3Z" fill="white"/>
    <path d="M240.768 246.617C241.03 245.504 240.341 244.389 239.229 244.127C238.116 243.864 237.001 244.553 236.738 245.666C236.476 246.778 237.165 247.893 238.277 248.156C239.39 248.418 240.505 247.729 240.768 246.617Z" fill="white"/>
    <path d="M233.06 241.64C233.06 241.912 233.007 242.181 232.903 242.433C232.799 242.684 232.646 242.912 232.454 243.104C232.262 243.297 232.034 243.449 231.782 243.553C231.531 243.658 231.262 243.711 230.99 243.711C230.441 243.711 229.914 243.493 229.526 243.105C229.137 242.716 228.919 242.189 228.919 241.64C228.919 241.091 229.137 240.564 229.526 240.176C229.914 239.787 230.441 239.569 230.99 239.569C231.262 239.569 231.531 239.623 231.782 239.727C232.034 239.831 232.262 239.983 232.454 240.176C232.646 240.368 232.799 240.596 232.903 240.848C233.007 241.099 233.06 241.368 233.06 241.64Z" fill="white"/>
    <path d="M238.752 246.942C238.611 246.942 238.473 246.905 238.352 246.834L230.587 242.334C230.467 242.265 230.367 242.166 230.297 242.047C230.227 241.928 230.189 241.792 230.187 241.654C230.185 241.516 230.219 241.38 230.285 241.258C230.351 241.137 230.448 241.035 230.566 240.962L238.33 236.145C238.51 236.034 238.727 235.999 238.933 236.047C239.139 236.096 239.318 236.224 239.43 236.404C239.541 236.584 239.576 236.802 239.528 237.008C239.479 237.214 239.351 237.393 239.171 237.504L232.541 241.618L239.151 245.449C239.242 245.502 239.321 245.572 239.385 245.655C239.449 245.739 239.496 245.834 239.523 245.936C239.55 246.037 239.557 246.143 239.543 246.248C239.529 246.352 239.495 246.452 239.442 246.543C239.372 246.664 239.271 246.765 239.15 246.835C239.029 246.905 238.892 246.942 238.752 246.942Z" fill="white"/>
    <defs>
        <linearGradient id="paint0_linear_3003_5424" x1="340.451" y1="62.0788" x2="30.2105" y2="209.239" gradientUnits="userSpaceOnUse">
            <stop stop-color="#DB5FDD"/>
            <stop offset="1" stop-color="#4C13BF"/>
        </linearGradient>
        <linearGradient id="paint1_linear_3003_5424" x1="2565.26" y1="140.447" x2="2442.34" y2="178.847" gradientUnits="userSpaceOnUse">
            <stop stop-color="#FFC34E"/>
            <stop offset="1" stop-color="#FB8627"/>
        </linearGradient>
        <linearGradient id="paint2_linear_3003_5424" x1="2546.08" y1="124.272" x2="2430.66" y2="220.579" gradientUnits="userSpaceOnUse">
            <stop stop-color="#FFC34E"/>
            <stop offset="1" stop-color="#FB8627"/>
        </linearGradient>
        <linearGradient id="paint3_linear_3003_5424" x1="2568.98" y1="103.094" x2="2473.51" y2="195.148" gradientUnits="userSpaceOnUse">
            <stop stop-color="#FFC34E"/>
            <stop offset="1" stop-color="#FB8627"/>
        </linearGradient>
        <linearGradient id="paint4_linear_3003_5424" x1="2563.08" y1="131.831" x2="2454.29" y2="253.003" gradientUnits="userSpaceOnUse">
            <stop stop-color="#FFC34E"/>
            <stop offset="1" stop-color="#FB8627"/>
        </linearGradient>
    </defs>
</svg>
